<svg width="32" height="32" viewBox="0 0 32 32" fill="none" xmlns="http://www.w3.org/2000/svg">
<path fill-rule="evenodd" clip-rule="evenodd" d="M22.9184 1.89184C23.4201 1.89184 23.9013 2.09116 24.2561 2.44594C24.6109 2.80073 24.8102 3.28193 24.8102 3.78368V12.9205C25.4579 13.2522 26.0893 13.6157 26.7021 14.0096V3.78368C26.7021 2.78018 26.3034 1.81779 25.5938 1.10821C24.8843 0.398636 23.9219 0 22.9184 0H7.78368C6.78018 0 5.81779 0.398636 5.10821 1.10821C4.39864 1.81779 4 2.78018 4 3.78368V26.4857C4 27.4892 4.39864 28.4516 5.10821 29.1612C5.81779 29.8708 6.78018 30.2694 7.78368 30.2694H12.9558C12.924 30.085 12.9073 29.8935 12.9074 29.6957L12.9077 28.3776H7.78368C7.28193 28.3776 6.80073 28.1783 6.44595 27.8235C6.09116 27.4687 5.89184 26.9875 5.89184 26.4857V3.78368C5.89184 3.28193 6.09116 2.80073 6.44595 2.44594C6.80073 2.09116 7.28193 1.89184 7.78368 1.89184H22.9184ZM13.8536 28.3776L13.8533 29.6959C13.8532 29.8967 13.8776 30.0884 13.923 30.2694H21.0307V28.8633C21.0315 28.7337 21.0816 28.6092 21.1711 28.5151C21.2327 28.4502 21.3099 28.4031 21.3945 28.3776H13.8536ZM21.6916 28.3776C21.7563 28.3971 21.817 28.4294 21.87 28.4732C21.9701 28.5559 22.0349 28.6734 22.0513 28.802V28.8633C22.0513 29.1343 22.1593 29.3941 22.3515 29.5857C22.5436 29.7773 22.8043 29.8849 23.0761 29.8849C23.3478 29.8849 23.6085 29.7773 23.8007 29.5857C23.9928 29.3941 24.1008 29.1343 24.1008 28.8633V27.9625C23.7669 28.2299 23.3503 28.3776 22.9184 28.3776H21.6916ZM24.8102 26.1987C25.4407 25.742 26.0713 25.2855 26.7021 24.8292V21.5279C26.118 20.9002 25.4854 20.3181 24.8102 19.7876V26.1987ZM24.8102 17.8857C25.4744 18.3406 26.1064 18.8387 26.7021 19.376V15.1447C26.0914 14.7267 25.4599 14.3412 24.8102 13.9895V17.8857ZM26.7021 25.9968C26.1502 26.3962 25.5984 26.7957 25.0467 27.1954V28.8633C25.0467 29.1733 24.9735 29.4755 24.8367 29.747C25.1106 29.586 25.3653 29.3897 25.5938 29.1612C26.3034 28.4516 26.7021 27.4892 26.7021 26.4857V25.9968ZM8.06073 4.06073C7.88334 4.23812 7.78368 4.47872 7.78368 4.7296V8.51327C7.78368 8.76415 7.88334 9.00474 8.06073 9.18214C8.23812 9.35953 8.47872 9.45919 8.7296 9.45919H21.9725C22.2233 9.45919 22.4639 9.35953 22.6413 9.18214C22.8187 9.00474 22.9184 8.76415 22.9184 8.51327V4.7296C22.9184 4.47872 22.8187 4.23812 22.6413 4.06073C22.4639 3.88334 22.2233 3.78368 21.9725 3.78368H8.7296C8.47872 3.78368 8.23812 3.88334 8.06073 4.06073ZM8.06073 11.6281C7.88334 11.8055 7.78368 12.0461 7.78368 12.2969V14.1888C7.78368 14.4397 7.88334 14.6803 8.06073 14.8577C8.23812 15.035 8.47872 15.1347 8.7296 15.1347H10.6214C10.8723 15.1347 11.1129 15.035 11.2903 14.8577C11.4677 14.6803 11.5674 14.4397 11.5674 14.1888V12.2969C11.5674 12.0461 11.4677 11.8055 11.2903 11.6281C11.1129 11.4507 10.8723 11.351 10.6214 11.351H8.7296C8.47872 11.351 8.23812 11.4507 8.06073 11.6281ZM7.78368 17.9725C7.78368 17.7216 7.88334 17.481 8.06073 17.3036C8.23812 17.1262 8.47872 17.0265 8.7296 17.0265H10.6214C10.8723 17.0265 11.1129 17.1262 11.2903 17.3036C11.4677 17.481 11.5674 17.7216 11.5674 17.9725V19.8643C11.5674 20.1152 11.4677 20.3558 11.2903 20.5332C11.1129 20.7106 10.8723 20.8102 10.6214 20.8102H8.7296C8.47872 20.8102 8.23812 20.7106 8.06073 20.5332C7.88334 20.3558 7.78368 20.1152 7.78368 19.8643V17.9725ZM8.06073 22.9791C7.88334 23.1565 7.78368 23.3971 7.78368 23.648V25.5398C7.78368 25.7907 7.88334 26.0313 8.06073 26.2087C8.23812 26.3861 8.47872 26.4857 8.7296 26.4857H10.6214C10.8723 26.4857 11.1129 26.3861 11.2903 26.2087C11.4677 26.0313 11.5674 25.7907 11.5674 25.5398V23.648C11.5674 23.3971 11.4677 23.1565 11.2903 22.9791C11.1129 22.8017 10.8723 22.7021 10.6214 22.7021H8.7296C8.47872 22.7021 8.23812 22.8017 8.06073 22.9791Z" fill="#BE4186"/>
<path d="M13.8564 14.2239C13.8564 12.6956 15.1179 11.3594 16.7472 11.5198C22.0526 12.0437 26.9679 14.5324 30.5218 18.4942C31.6183 19.7129 31.2771 21.5222 30.031 22.4222L29.5975 22.7358L29.2255 22.1842L29.2173 22.1719C25.9484 17.6708 20.63 14.7408 14.625 14.7408H13.8564V14.2239ZM27.9651 23.0607L28.3525 23.6358C27.0036 24.6106 25.6554 25.5863 24.3078 26.5627L24.1008 26.7159V28.8633C24.1008 29.1343 23.9928 29.3941 23.8006 29.5857C23.6085 29.7773 23.3478 29.8849 23.076 29.8849C22.8043 29.8849 22.5436 29.7773 22.3514 29.5857C22.1593 29.3941 22.0513 29.1343 22.0513 28.8633V28.802C22.0349 28.6735 21.9701 28.5559 21.87 28.4732C21.7699 28.3905 21.642 28.3488 21.5122 28.3566C21.3824 28.3644 21.2605 28.4211 21.1711 28.5152C21.0816 28.6092 21.0314 28.7337 21.0307 28.8633V30.3967C21.0307 30.6589 20.9297 30.9109 20.7485 31.1009C20.5673 31.2908 20.3198 31.4041 20.0572 31.4172C19.7946 31.4303 19.537 31.3423 19.3377 31.1714C19.1384 31.0005 19.0125 30.7597 18.9863 30.4989L17.5107 31.5614C15.9848 32.6585 13.8523 31.5716 13.8533 29.6959L13.8564 16.2722H14.625C20.1115 16.2722 24.9708 18.9457 27.9651 23.0607ZM17.9564 20.6906C18.2282 20.6906 18.4888 20.583 18.681 20.3914C18.8732 20.1998 18.9812 19.9399 18.9812 19.669C18.9812 19.3981 18.8732 19.1382 18.681 18.9466C18.4888 18.755 18.2282 18.6474 17.9564 18.6474C17.6846 18.6474 17.424 18.755 17.2318 18.9466C17.0396 19.1382 16.9317 19.3981 16.9317 19.669C16.9317 19.9399 17.0396 20.1998 17.2318 20.3914C17.424 20.583 17.6846 20.6906 17.9564 20.6906ZM22.0554 23.7533C22.3272 23.7533 22.5878 23.6457 22.78 23.4541C22.9722 23.2625 23.0801 23.0027 23.0801 22.7317C23.0801 22.4608 22.9722 22.2009 22.78 22.0094C22.5878 21.8178 22.3272 21.7101 22.0554 21.7101C21.7836 21.7101 21.523 21.8178 21.3308 22.0094C21.1386 22.2009 21.0307 22.4608 21.0307 22.7317C21.0307 23.0027 21.1386 23.2625 21.3308 23.4541C21.523 23.6457 21.7836 23.7533 22.0554 23.7533ZM17.9564 26.8161C18.2282 26.8161 18.4888 26.7084 18.681 26.5168C18.8732 26.3253 18.9812 26.0654 18.9812 25.7945C18.9812 25.5235 18.8732 25.2637 18.681 25.0721C18.4888 24.8805 18.2282 24.7729 17.9564 24.7729C17.6846 24.7729 17.424 24.8805 17.2318 25.0721C17.0396 25.2637 16.9317 25.5235 16.9317 25.7945C16.9317 26.0654 17.0396 26.3253 17.2318 26.5168C17.424 26.7084 17.6846 26.8161 17.9564 26.8161Z" fill="#8BC34B"/>
</svg>
